<?xml version="1.0" encoding="utf-8"?>
<!-- Svg Vector Icons : http://www.onlinewebfonts.com/icon -->
<!DOCTYPE svg PUBLIC "-//W3C//DTD SVG 1.1//EN" "http://www.w3.org/Graphics/SVG/1.1/DTD/svg11.dtd">
<svg version="1.1" xmlns="http://www.w3.org/2000/svg" xmlns:xlink="http://www.w3.org/1999/xlink" x="0px" y="0px" viewBox="0 0 1000 1000" enable-background="new 0 0 1000 1000" xml:space="preserve">
<metadata> Svg Vector Icons : http://www.onlinewebfonts.com/icon </metadata>
<g><path d="M881.1,881.1V118.9H118.9v762.2H881.1 M881.1,10C941,10,990,59,990,118.9v762.2c0,60.4-49,108.9-108.9,108.9H118.9C59,990,10,941,10,881.1V118.9C10,59,59,10,118.9,10H881.1 M755.9,355.7l-54.4,54.4L589.8,298.6l54.4-54.4c11.4-12,30.5-12,41.9,0l69.7,69.7C767.9,325.2,767.9,344.3,755.9,355.7 M227.8,660.1l329.9-329.9l112.2,112.2L339.9,772.2H227.8V660.1L227.8,660.1z"/></g>
</svg>